<?xml version="1.0" encoding="UTF-8" standalone="no"?>
<!-- Created with Inkscape (http://www.inkscape.org/) -->
<svg id="svg2" xmlns:rdf="http://www.w3.org/1999/02/22-rdf-syntax-ns#" xmlns="http://www.w3.org/2000/svg" height="7in" viewBox="0 0 432.00002 630.00001" width="4.8in" version="1.1" xmlns:cc="http://creativecommons.org/ns#" xmlns:dc="http://purl.org/dc/elements/1.1/">
 <defs id="defs4">
  <marker id="Arrow2Lend-8-0-0-7-69" refY="0" refX="0" overflow="visible" orient="auto">
   <path id="path4440-4-5-3-5-7" stroke-linejoin="round" d="m8.7186 4.0337-10.926-4.0177 10.926-4.0177c-1.7455 2.3721-1.7354 5.6175-6e-7 8.0354z" fill-rule="evenodd" transform="matrix(-1.1,0,0,-1.1,-1.1,0)" stroke="#000" stroke-width=".625"/>
  </marker>
  <marker id="Arrow2Lend-8-0-0-7-6-5" refY="0" refX="0" overflow="visible" orient="auto">
   <path id="path4440-4-5-3-5-9-0" stroke-linejoin="round" d="m8.7186 4.0337-10.926-4.0177 10.926-4.0177c-1.7455 2.3721-1.7354 5.6175-6e-7 8.0354z" fill-rule="evenodd" transform="matrix(-1.1,0,0,-1.1,-1.1,0)" stroke="#000" stroke-width=".625"/>
  </marker>
  <marker id="Arrow2Lend-8-0-0-7-6-9-1-1-95" refY="0" refX="0" overflow="visible" orient="auto">
   <path id="path4440-4-5-3-5-9-5-1-7-7" stroke-linejoin="round" d="m8.7186 4.0337-10.926-4.0177 10.926-4.0177c-1.7455 2.3721-1.7354 5.6175-6e-7 8.0354z" fill-rule="evenodd" transform="matrix(-1.1,0,0,-1.1,-1.1,0)" stroke="#000" stroke-width=".625"/>
  </marker>
 </defs>
 <metadata id="metadata7">
  <rdf:RDF>
   <cc:Work rdf:about="">
    <dc:format>image/svg+xml</dc:format>
    <dc:type rdf:resource="http://purl.org/dc/dcmitype/StillImage"/>
    <dc:title/>
   </cc:Work>
  </rdf:RDF>
 </metadata>
 <g id="layer1-6" transform="translate(215.19 -425.7)">
  <path id="path4413-1-2-6-8-2" marker-end="url(#Arrow2Lend-8-0-0-7-69)" d="m-25.435 679.2 1.1445-223.8" stroke="#000" stroke-width="1px" fill="none"/>
  <g fill="#999">
   <circle id="path17044-3-5" cx="-24.365" cy="647.85" r="8.5863"/>
   <circle id="circle17046-1-9" cx="-24.365" cy="606.35" r="8.5863"/>
   <circle id="circle17048-5-8" cx="-24.365" cy="566.01" r="8.5863"/>
  </g>
  <text id="text17090-43-8" font-size="11.25px" style="word-spacing:0px;letter-spacing:0px" font-stretch="condensed" xml:space="preserve" y="443.4772" x="-68.605858" font-family="&apos;Myriad Pro&apos;" line-height="125%" fill="#000000"><tspan id="tspan17092-0-9" y="443.4772" x="-68.605858">parent or ancestor branch</tspan></text>
  <path id="path4413-1-2-6-8-3-5" marker-end="url(#Arrow2Lend-8-0-0-7-6-5)" d="m73.975 537.47-0.2841-82.068" stroke="#000" stroke-width="1px" fill="none"/>
  <circle id="path17044-3-3-0" cy="537.27" cx="73.605" r="8.5863" fill="#ccc"/>
  <circle id="circle17046-1-3-6" cy="509.71" cx="73.605" r="8.5863" fill="#ccc"/>
  <text id="text17090-43-4-4" style="word-spacing:0px;letter-spacing:0px" xml:space="preserve" font-size="11.25px" line-height="125%" font-stretch="condensed" y="443.4772" x="52.543388" font-family="&apos;Myriad Pro&apos;" fill="#000000"><tspan id="tspan17092-0-3-7" y="443.4772" x="52.543388">new branch</tspan></text>
  <flowRoot id="flowRoot17352-7" style="word-spacing:0px;letter-spacing:0px" xml:space="preserve" transform="translate(-50.26,309.81)" line-height="125%" font-stretch="condensed" font-size="11.25px" font-family="&apos;Myriad Pro&apos;" fill="#000000"><flowRegion id="flowRegion17354-2"><rect id="rect17356-6" y="21.429" width="42.143" x="147.86" height="248.57"/></flowRegion><flowPara id="flowPara17358-3"/></flowRoot>
  <circle id="circle17046-1-3-2-5" cy="482.03" cx="73.105" r="8.5863" fill="#ccc"/>
  <path id="path4413-1-2-6-8-3-2-3-7-0" marker-end="url(#Arrow2Lend-8-0-0-7-6-9-1-1-95)" d="m-16.262 567.46c25.801 5.6307 72.026 7.2011 88.448-20.832" stroke="#000" stroke-dasharray="6, 6" fill="none"/>
 </g>
</svg>
