<?xml version="1.0" encoding="UTF-8" standalone="no"?>
<!-- Created with Inkscape (http://www.inkscape.org/) -->
<svg id="svg2" xmlns:rdf="http://www.w3.org/1999/02/22-rdf-syntax-ns#" xmlns="http://www.w3.org/2000/svg" height="7in" viewBox="0 0 432.00002 630.00001" width="4.8in" version="1.1" xmlns:cc="http://creativecommons.org/ns#" xmlns:dc="http://purl.org/dc/elements/1.1/">
 <defs id="defs4">
  <marker id="Arrow2Lend-8-0-0-7-69" refY="0" refX="0" overflow="visible" orient="auto">
   <path id="path4440-4-5-3-5-7" stroke-linejoin="round" d="m8.7186 4.0337-10.926-4.0177 10.926-4.0177c-1.7455 2.3721-1.7354 5.6175-6e-7 8.0354z" fill-rule="evenodd" transform="matrix(-1.1,0,0,-1.1,-1.1,0)" stroke="#000" stroke-width=".625"/>
  </marker>
  <marker id="Arrow2Lend-8-0-0-7-6-5" refY="0" refX="0" overflow="visible" orient="auto">
   <path id="path4440-4-5-3-5-9-0" stroke-linejoin="round" d="m8.7186 4.0337-10.926-4.0177 10.926-4.0177c-1.7455 2.3721-1.7354 5.6175-6e-7 8.0354z" fill-rule="evenodd" transform="matrix(-1.1,0,0,-1.1,-1.1,0)" stroke="#000" stroke-width=".625"/>
  </marker>
  <marker id="Arrow2Lend-8-0-0-7-6-9-1-1-95" refY="0" refX="0" overflow="visible" orient="auto">
   <path id="path4440-4-5-3-5-9-5-1-7-7" stroke-linejoin="round" d="m8.7186 4.0337-10.926-4.0177 10.926-4.0177c-1.7455 2.3721-1.7354 5.6175-6e-7 8.0354z" fill-rule="evenodd" transform="matrix(-1.1,0,0,-1.1,-1.1,0)" stroke="#000" stroke-width=".625"/>
  </marker>
  <marker id="Arrow2Lend-8-0-0-7-6-9-1-1-95-8" refY="0" refX="0" orient="auto" overflow="visible">
   <path id="path4440-4-5-3-5-9-5-1-7-7-2" stroke-linejoin="round" d="m8.7186 4.0337-10.926-4.0177 10.926-4.0177c-1.7455 2.3721-1.7354 5.6175-6e-7 8.0354z" fill-rule="evenodd" transform="matrix(-1.1,0,0,-1.1,-1.1,0)" stroke="#000" stroke-width=".625"/>
  </marker>
  <marker id="Arrow2Lend-8-0-0-7-6-5-4" refY="0" refX="0" orient="auto" overflow="visible">
   <path id="path4440-4-5-3-5-9-0-5" stroke-linejoin="round" d="m8.7186 4.0337-10.926-4.0177 10.926-4.0177c-1.7455 2.3721-1.7354 5.6175-6e-7 8.0354z" fill-rule="evenodd" transform="matrix(-1.1,0,0,-1.1,-1.1,0)" stroke="#000" stroke-width=".625"/>
  </marker>
 </defs>
 <metadata id="metadata7">
  <rdf:RDF>
   <cc:Work rdf:about="">
    <dc:format>image/svg+xml</dc:format>
    <dc:type rdf:resource="http://purl.org/dc/dcmitype/StillImage"/>
    <dc:title/>
   </cc:Work>
  </rdf:RDF>
 </metadata>
 <g id="layer1-6" transform="translate(215.19 -425.7)">
  <path id="path4413-1-2-6-8-2" marker-end="url(#Arrow2Lend-8-0-0-7-69)" d="m-25.435 632.95 1.1445-92.611" stroke="#000" stroke-width="1px" fill="none"/>
  <g id="g5795" stroke="#000">
   <circle id="path17044-3-5" cy="591.22" cx="-24.837" r="8.5863" fill="#ececec"/>
   <circle id="circle17046-1-9" cy="614.84" cx="-24.837" r="8.5863" fill="#f2f2f2"/>
   <circle id="circle17048-5-8" cy="566.01" cx="-24.837" r="8.5863" fill="#ececec"/>
  </g>
  <g font-size="11.25px" font-stretch="condensed" font-family="&apos;Myriad Pro&apos;" fill="#000000">
   <text id="text17090-43-8" xml:space="preserve" style="word-spacing:0px;letter-spacing:0px" line-height="125%" y="641.67688" x="-70.493477"><tspan id="tspan17092-0-9" y="641.67688" x="-70.493477">parent or ancestor branch</tspan></text>
   <text id="text17090-43-4-4" style="word-spacing:0px;letter-spacing:0px" xml:space="preserve" line-height="125%" y="468.96002" x="33.037659"><tspan id="tspan17092-0-3-7" y="468.96002" x="33.037659">broken</tspan></text>
   <flowRoot id="flowRoot17352-7" style="word-spacing:0px;letter-spacing:0px" xml:space="preserve" transform="translate(-50.26,309.81)" line-height="125%"><flowRegion id="flowRegion17354-2"><rect id="rect17356-6" y="21.429" width="42.143" height="248.57" x="147.86"/></flowRegion><flowPara id="flowPara17358-3"/></flowRoot>
  </g>
  <g id="g6409">
   <path id="path4413-1-2-6-8-3-5" marker-end="url(#Arrow2Lend-8-0-0-7-6-5)" d="m45.975 537.47-0.284-59.42" stroke="#000" stroke-width="1px" fill="none"/>
   <circle id="path17044-3-3-0" cy="537.27" cx="45.605" r="8.5863" fill="#808080"/>
   <circle id="circle17046-1-3-6" cy="509.71" cx="45.605" r="8.5863" fill="#808080"/>
   <path id="path4413-1-2-6-8-3-2-3-7-0" marker-end="url(#Arrow2Lend-8-0-0-7-6-9-1-1-95)" d="m-16.262 566.52c25.801 5.6307 49.375 9.0887 60.134-18.001" stroke="#000" stroke-dasharray="6, 6" fill="none"/>
  </g>
  <path id="path4413-1-2-6-8-3-5-5" marker-end="url(#Arrow2Lend-8-0-0-7-6-5-4)" d="m-94.52 541.03 0.2841-82.068" stroke="#000" stroke-width="1px" fill="none"/>
  <g fill="#333">
   <circle id="path17044-3-3-0-2" cx="94.15" transform="scale(-1,1)" cy="540.83" r="8.5863"/>
   <circle id="circle17046-1-3-6-0" cx="94.15" transform="scale(-1,1)" cy="513.27" r="8.5863"/>
   <circle id="circle17046-1-3-2-5-1" cx="93.65" transform="scale(-1,1)" cy="485.59" r="8.5863"/>
  </g>
  <path id="path4413-1-2-6-8-3-2-3-7-0-4" marker-end="url(#Arrow2Lend-8-0-0-7-6-9-1-1-95-8)" d="m-34.485 566.3c-25.801 5.6307-39.937 10.976-56.359-17.057" stroke="#000" stroke-dasharray="6, 6" fill="none"/>
  <text id="text6478" style="word-spacing:0px;letter-spacing:0px" xml:space="preserve" font-size="11.25px" font-stretch="condensed" line-height="125%" y="453.55063" x="-109.48354" font-family="&apos;Myriad Pro&apos;" fill="#000000"><tspan id="tspan6480" x="-109.48354" y="453.55063">working</tspan></text>
 </g>
</svg>
